<?xml version="1.0" encoding="UTF-8" standalone="no"?>
<!DOCTYPE svg PUBLIC "-//W3C//DTD SVG 1.1//EN"
 "http://www.w3.org/Graphics/SVG/1.1/DTD/svg11.dtd">
<!-- Generated by graphviz version 2.47.0 (20210316.0004)
 -->
<!-- Title: dependencies Pages: 1 -->
<svg width="1118pt" height="211pt"
 viewBox="0.00 0.00 1118.00 211.00" xmlns="http://www.w3.org/2000/svg" xmlns:xlink="http://www.w3.org/1999/xlink">
<g id="graph0" class="graph" transform="scale(1 1) rotate(0) translate(4 207)">
<title>dependencies</title>
<polygon fill="white" stroke="transparent" points="-4,4 -4,-207 1114,-207 1114,4 -4,4"/>
<text text-anchor="start" x="534.01" y="-42.4" font-family="Times-12" font-weight="bold" font-size="14.00">Legend</text>
<polygon fill="#ffffb3" stroke="transparent" points="321,-10 321,-30 341,-30 341,-10 321,-10"/>
<text text-anchor="start" x="344.63" y="-15.4" font-family="Times-12" font-size="14.00"> &#160;Declarations</text>
<polygon fill="#8dd3c7" stroke="transparent" points="434,-10 434,-30 454,-30 454,-10 434,-10"/>
<text text-anchor="start" x="457.73" y="-15.4" font-family="Times-12" font-size="14.00"> &#160;Module</text>
<polygon fill="#80b1d3" stroke="transparent" points="520,-10 520,-30 540,-30 540,-10 520,-10"/>
<text text-anchor="start" x="543.78" y="-15.4" font-family="Times-12" font-size="14.00"> &#160;Bootstrap</text>
<polygon fill="#fdb462" stroke="transparent" points="617,-10 617,-30 637,-30 637,-10 617,-10"/>
<text text-anchor="start" x="640.67" y="-15.4" font-family="Times-12" font-size="14.00"> &#160;Providers</text>
<polygon fill="#fb8072" stroke="transparent" points="713,-10 713,-30 733,-30 733,-10 713,-10"/>
<text text-anchor="start" x="736.73" y="-15.4" font-family="Times-12" font-size="14.00"> &#160;Exports</text>
<g id="clust1" class="cluster">
<title>cluster_AppModule</title>
<polygon fill="none" stroke="black" stroke-dasharray="1,5" points="8,-70 8,-195 1102,-195 1102,-70 8,-70"/>
</g>
<g id="clust3" class="cluster">
<title>cluster_AppModule_imports</title>
<polygon fill="none" stroke="black" points="154,-78 154,-130 1094,-130 1094,-78 154,-78"/>
</g>
<g id="clust6" class="cluster">
<title>cluster_AppModule_providers</title>
<polygon fill="none" stroke="black" points="16,-78 16,-130 146,-130 146,-78 16,-78"/>
</g>
<!-- AuthModule -->
<g id="node1" class="node">
<title>AuthModule</title>
<polygon fill="#8dd3c7" stroke="black" points="1085.55,-122 1082.55,-126 1061.55,-126 1058.55,-122 998.45,-122 998.45,-86 1085.55,-86 1085.55,-122"/>
<text text-anchor="middle" x="1042" y="-99.8" font-family="Times,serif" font-size="14.00">AuthModule</text>
</g>
<!-- AppModule -->
<g id="node9" class="node">
<title>AppModule</title>
<polygon fill="#8dd3c7" stroke="black" points="633.66,-187 630.66,-191 609.66,-191 606.66,-187 550.34,-187 550.34,-151 633.66,-151 633.66,-187"/>
<text text-anchor="middle" x="592" y="-164.8" font-family="Times,serif" font-size="14.00">AppModule</text>
</g>
<!-- AuthModule&#45;&gt;AppModule -->
<g id="edge1" class="edge">
<title>AuthModule&#45;&gt;AppModule</title>
<path fill="none" stroke="black" d="M1042,-122.01C1042,-144.49 1042,-180 1042,-180 1042,-180 643.93,-180 643.93,-180"/>
<polygon fill="black" stroke="black" points="643.93,-176.5 633.93,-180 643.93,-183.5 643.93,-176.5"/>
</g>
<!-- ClasseModule -->
<g id="node2" class="node">
<title>ClasseModule</title>
<polygon fill="#8dd3c7" stroke="black" points="980.1,-122 977.1,-126 956.1,-126 953.1,-122 883.9,-122 883.9,-86 980.1,-86 980.1,-122"/>
<text text-anchor="middle" x="932" y="-99.8" font-family="Times,serif" font-size="14.00">ClasseModule</text>
</g>
<!-- ClasseModule&#45;&gt;AppModule -->
<g id="edge2" class="edge">
<title>ClasseModule&#45;&gt;AppModule</title>
<path fill="none" stroke="black" d="M932,-122.13C932,-142.57 932,-173 932,-173 932,-173 643.69,-173 643.69,-173"/>
<polygon fill="black" stroke="black" points="643.69,-169.5 633.69,-173 643.69,-176.5 643.69,-169.5"/>
</g>
<!-- EleveModule -->
<g id="node3" class="node">
<title>EleveModule</title>
<polygon fill="#8dd3c7" stroke="black" points="865.92,-122 862.92,-126 841.92,-126 838.92,-122 774.08,-122 774.08,-86 865.92,-86 865.92,-122"/>
<text text-anchor="middle" x="820" y="-99.8" font-family="Times,serif" font-size="14.00">EleveModule</text>
</g>
<!-- EleveModule&#45;&gt;AppModule -->
<g id="edge3" class="edge">
<title>EleveModule&#45;&gt;AppModule</title>
<path fill="none" stroke="black" d="M820,-122.27C820,-140.56 820,-166 820,-166 820,-166 643.82,-166 643.82,-166"/>
<polygon fill="black" stroke="black" points="643.82,-162.5 633.82,-166 643.82,-169.5 643.82,-162.5"/>
</g>
<!-- MatiereModule -->
<g id="node4" class="node">
<title>MatiereModule</title>
<polygon fill="#8dd3c7" stroke="black" points="756.58,-122 753.58,-126 732.58,-126 729.58,-122 653.42,-122 653.42,-86 756.58,-86 756.58,-122"/>
<text text-anchor="middle" x="705" y="-99.8" font-family="Times,serif" font-size="14.00">MatiereModule</text>
</g>
<!-- MatiereModule&#45;&gt;AppModule -->
<g id="edge4" class="edge">
<title>MatiereModule&#45;&gt;AppModule</title>
<path fill="none" stroke="black" d="M705,-122.01C705,-138.05 705,-159 705,-159 705,-159 643.76,-159 643.76,-159"/>
<polygon fill="black" stroke="black" points="643.76,-155.5 633.76,-159 643.76,-162.5 643.76,-155.5"/>
</g>
<!-- NoteModule -->
<g id="node5" class="node">
<title>NoteModule</title>
<polygon fill="#8dd3c7" stroke="black" points="635.26,-122 632.26,-126 611.26,-126 608.26,-122 548.74,-122 548.74,-86 635.26,-86 635.26,-122"/>
<text text-anchor="middle" x="592" y="-99.8" font-family="Times,serif" font-size="14.00">NoteModule</text>
</g>
<!-- NoteModule&#45;&gt;AppModule -->
<g id="edge5" class="edge">
<title>NoteModule&#45;&gt;AppModule</title>
<path fill="none" stroke="black" d="M592,-122.11C592,-122.11 592,-140.99 592,-140.99"/>
<polygon fill="black" stroke="black" points="588.5,-140.99 592,-150.99 595.5,-140.99 588.5,-140.99"/>
</g>
<!-- ParentModule -->
<g id="node6" class="node">
<title>ParentModule</title>
<polygon fill="#8dd3c7" stroke="black" points="530.81,-122 527.81,-126 506.81,-126 503.81,-122 435.19,-122 435.19,-86 530.81,-86 530.81,-122"/>
<text text-anchor="middle" x="483" y="-99.8" font-family="Times,serif" font-size="14.00">ParentModule</text>
</g>
<!-- ParentModule&#45;&gt;AppModule -->
<g id="edge6" class="edge">
<title>ParentModule&#45;&gt;AppModule</title>
<path fill="none" stroke="black" d="M483,-122.01C483,-138.05 483,-159 483,-159 483,-159 540.17,-159 540.17,-159"/>
<polygon fill="black" stroke="black" points="540.17,-162.5 550.17,-159 540.17,-155.5 540.17,-162.5"/>
</g>
<!-- ProfesseurModule -->
<g id="node7" class="node">
<title>ProfesseurModule</title>
<polygon fill="#8dd3c7" stroke="black" points="417.13,-122 414.13,-126 393.13,-126 390.13,-122 298.87,-122 298.87,-86 417.13,-86 417.13,-122"/>
<text text-anchor="middle" x="358" y="-99.8" font-family="Times,serif" font-size="14.00">ProfesseurModule</text>
</g>
<!-- ProfesseurModule&#45;&gt;AppModule -->
<g id="edge7" class="edge">
<title>ProfesseurModule&#45;&gt;AppModule</title>
<path fill="none" stroke="black" d="M358,-122.27C358,-140.56 358,-166 358,-166 358,-166 540.17,-166 540.17,-166"/>
<polygon fill="black" stroke="black" points="540.17,-169.5 550.17,-166 540.17,-162.5 540.17,-169.5"/>
</g>
<!-- UtilisateurModule -->
<g id="node8" class="node">
<title>UtilisateurModule</title>
<polygon fill="#8dd3c7" stroke="black" points="280.14,-122 277.14,-126 256.14,-126 253.14,-122 161.86,-122 161.86,-86 280.14,-86 280.14,-122"/>
<text text-anchor="middle" x="221" y="-99.8" font-family="Times,serif" font-size="14.00">UtilisateurModule</text>
</g>
<!-- UtilisateurModule&#45;&gt;AppModule -->
<g id="edge8" class="edge">
<title>UtilisateurModule&#45;&gt;AppModule</title>
<path fill="none" stroke="black" d="M221,-122.13C221,-142.57 221,-173 221,-173 221,-173 540.16,-173 540.16,-173"/>
<polygon fill="black" stroke="black" points="540.16,-176.5 550.16,-173 540.16,-169.5 540.16,-176.5"/>
</g>
<!-- AppService -->
<g id="node10" class="node">
<title>AppService</title>
<ellipse fill="#fdb462" stroke="black" cx="81" cy="-104" rx="56.74" ry="18"/>
<text text-anchor="middle" x="81" y="-99.8" font-family="Times,serif" font-size="14.00">AppService</text>
</g>
<!-- AppService&#45;&gt;AppModule -->
<g id="edge9" class="edge">
<title>AppService&#45;&gt;AppModule</title>
<path fill="none" stroke="black" d="M81,-122.01C81,-144.49 81,-180 81,-180 81,-180 540.18,-180 540.18,-180"/>
<polygon fill="black" stroke="black" points="540.18,-183.5 550.18,-180 540.18,-176.5 540.18,-183.5"/>
</g>
</g>
</svg>
