<?xml version="1.0" encoding="UTF-8" standalone="no"?>
<!DOCTYPE svg PUBLIC "-//W3C//DTD SVG 1.1//EN"
 "http://www.w3.org/Graphics/SVG/1.1/DTD/svg11.dtd">
<!-- Generated by graphviz version 2.47.0 (20210316.0004)
 -->
<!-- Title: dependencies Pages: 1 -->
<svg width="1552pt" height="287pt"
 viewBox="0.00 0.00 1552.00 287.00" xmlns="http://www.w3.org/2000/svg" xmlns:xlink="http://www.w3.org/1999/xlink">
<g id="graph0" class="graph" transform="scale(1 1) rotate(0) translate(4 283)">
<title>dependencies</title>
<polygon fill="white" stroke="transparent" points="-4,4 -4,-283 1548,-283 1548,4 -4,4"/>
<text text-anchor="start" x="751.01" y="-42.4" font-family="Times-12" font-weight="bold" font-size="14.00">Legend</text>
<polygon fill="#ffffb3" stroke="transparent" points="538,-10 538,-30 558,-30 558,-10 538,-10"/>
<text text-anchor="start" x="561.63" y="-15.4" font-family="Times-12" font-size="14.00"> &#160;Declarations</text>
<polygon fill="#8dd3c7" stroke="transparent" points="651,-10 651,-30 671,-30 671,-10 651,-10"/>
<text text-anchor="start" x="674.73" y="-15.4" font-family="Times-12" font-size="14.00"> &#160;Module</text>
<polygon fill="#80b1d3" stroke="transparent" points="737,-10 737,-30 757,-30 757,-10 737,-10"/>
<text text-anchor="start" x="760.78" y="-15.4" font-family="Times-12" font-size="14.00"> &#160;Bootstrap</text>
<polygon fill="#fdb462" stroke="transparent" points="834,-10 834,-30 854,-30 854,-10 834,-10"/>
<text text-anchor="start" x="857.67" y="-15.4" font-family="Times-12" font-size="14.00"> &#160;Providers</text>
<polygon fill="#fb8072" stroke="transparent" points="930,-10 930,-30 950,-30 950,-10 930,-10"/>
<text text-anchor="start" x="953.73" y="-15.4" font-family="Times-12" font-size="14.00"> &#160;Exports</text>
<g id="clust1" class="cluster">
<title>cluster_AppModule</title>
<polygon fill="none" stroke="black" stroke-dasharray="1,5" points="176,-146 176,-271 1270,-271 1270,-146 176,-146"/>
</g>
<g id="clust3" class="cluster">
<title>cluster_AppModule_imports</title>
<polygon fill="none" stroke="black" points="322,-154 322,-206 1262,-206 1262,-154 322,-154"/>
</g>
<g id="clust6" class="cluster">
<title>cluster_AppModule_providers</title>
<polygon fill="none" stroke="black" points="184,-154 184,-206 314,-206 314,-154 184,-154"/>
</g>
<g id="clust7" class="cluster">
<title>cluster_AuthModule</title>
<polygon fill="none" stroke="black" stroke-dasharray="1,5" points="8,-70 8,-138 312,-138 312,-70 8,-70"/>
</g>
<g id="clust12" class="cluster">
<title>cluster_AuthModule_providers</title>
<polygon fill="none" stroke="black" points="16,-78 16,-130 304,-130 304,-78 16,-78"/>
</g>
<g id="clust13" class="cluster">
<title>cluster_ClasseModule</title>
<polygon fill="none" stroke="black" stroke-dasharray="1,5" points="320,-70 320,-138 482,-138 482,-70 320,-70"/>
</g>
<g id="clust18" class="cluster">
<title>cluster_ClasseModule_providers</title>
<polygon fill="none" stroke="black" points="328,-78 328,-130 474,-130 474,-78 328,-78"/>
</g>
<g id="clust19" class="cluster">
<title>cluster_EleveModule</title>
<polygon fill="none" stroke="black" stroke-dasharray="1,5" points="490,-70 490,-138 646,-138 646,-70 490,-70"/>
</g>
<g id="clust24" class="cluster">
<title>cluster_EleveModule_providers</title>
<polygon fill="none" stroke="black" points="498,-78 498,-130 638,-130 638,-78 498,-78"/>
</g>
<g id="clust25" class="cluster">
<title>cluster_MatiereModule</title>
<polygon fill="none" stroke="black" stroke-dasharray="1,5" points="654,-70 654,-138 826,-138 826,-70 654,-70"/>
</g>
<g id="clust30" class="cluster">
<title>cluster_MatiereModule_providers</title>
<polygon fill="none" stroke="black" points="662,-78 662,-130 818,-130 818,-78 662,-78"/>
</g>
<g id="clust31" class="cluster">
<title>cluster_NoteModule</title>
<polygon fill="none" stroke="black" stroke-dasharray="1,5" points="834,-70 834,-138 1164,-138 1164,-70 834,-70"/>
</g>
<g id="clust36" class="cluster">
<title>cluster_NoteModule_providers</title>
<polygon fill="none" stroke="black" points="842,-78 842,-130 1156,-130 1156,-78 842,-78"/>
</g>
<g id="clust37" class="cluster">
<title>cluster_ParentModule</title>
<polygon fill="none" stroke="black" stroke-dasharray="1,5" points="1172,-70 1172,-138 1334,-138 1334,-70 1172,-70"/>
</g>
<g id="clust42" class="cluster">
<title>cluster_ParentModule_providers</title>
<polygon fill="none" stroke="black" points="1180,-78 1180,-130 1326,-130 1326,-78 1180,-78"/>
</g>
<g id="clust49" class="cluster">
<title>cluster_UtilisateurModule</title>
<polygon fill="none" stroke="black" stroke-dasharray="1,5" points="1342,-70 1342,-138 1536,-138 1536,-70 1342,-70"/>
</g>
<g id="clust54" class="cluster">
<title>cluster_UtilisateurModule_providers</title>
<polygon fill="none" stroke="black" points="1350,-78 1350,-130 1528,-130 1528,-78 1350,-78"/>
</g>
<!-- AuthModule -->
<g id="node1" class="node">
<title>AuthModule</title>
<polygon fill="#8dd3c7" stroke="black" points="417.55,-198 414.55,-202 393.55,-202 390.55,-198 330.45,-198 330.45,-162 417.55,-162 417.55,-198"/>
<text text-anchor="middle" x="374" y="-175.8" font-family="Times,serif" font-size="14.00">AuthModule</text>
</g>
<!-- AppModule -->
<g id="node9" class="node">
<title>AppModule</title>
<polygon fill="#8dd3c7" stroke="black" points="752.66,-263 749.66,-267 728.66,-267 725.66,-263 669.34,-263 669.34,-227 752.66,-227 752.66,-263"/>
<text text-anchor="middle" x="711" y="-240.8" font-family="Times,serif" font-size="14.00">AppModule</text>
</g>
<!-- AuthModule&#45;&gt;AppModule -->
<g id="edge1" class="edge">
<title>AuthModule&#45;&gt;AppModule</title>
<path fill="none" stroke="black" d="M374,-198.13C374,-218.57 374,-249 374,-249 374,-249 659.34,-249 659.34,-249"/>
<polygon fill="black" stroke="black" points="659.34,-252.5 669.34,-249 659.34,-245.5 659.34,-252.5"/>
</g>
<!-- ClasseModule -->
<g id="node2" class="node">
<title>ClasseModule</title>
<polygon fill="#8dd3c7" stroke="black" points="532.1,-198 529.1,-202 508.1,-202 505.1,-198 435.9,-198 435.9,-162 532.1,-162 532.1,-198"/>
<text text-anchor="middle" x="484" y="-175.8" font-family="Times,serif" font-size="14.00">ClasseModule</text>
</g>
<!-- ClasseModule&#45;&gt;AppModule -->
<g id="edge2" class="edge">
<title>ClasseModule&#45;&gt;AppModule</title>
<path fill="none" stroke="black" d="M484,-198.27C484,-216.56 484,-242 484,-242 484,-242 659.1,-242 659.1,-242"/>
<polygon fill="black" stroke="black" points="659.1,-245.5 669.1,-242 659.1,-238.5 659.1,-245.5"/>
</g>
<!-- EleveModule -->
<g id="node3" class="node">
<title>EleveModule</title>
<polygon fill="#8dd3c7" stroke="black" points="641.92,-198 638.92,-202 617.92,-202 614.92,-198 550.08,-198 550.08,-162 641.92,-162 641.92,-198"/>
<text text-anchor="middle" x="596" y="-175.8" font-family="Times,serif" font-size="14.00">EleveModule</text>
</g>
<!-- EleveModule&#45;&gt;AppModule -->
<g id="edge3" class="edge">
<title>EleveModule&#45;&gt;AppModule</title>
<path fill="none" stroke="black" d="M596,-198.01C596,-214.05 596,-235 596,-235 596,-235 659.16,-235 659.16,-235"/>
<polygon fill="black" stroke="black" points="659.16,-238.5 669.16,-235 659.16,-231.5 659.16,-238.5"/>
</g>
<!-- MatiereModule -->
<g id="node4" class="node">
<title>MatiereModule</title>
<polygon fill="#8dd3c7" stroke="black" points="762.58,-198 759.58,-202 738.58,-202 735.58,-198 659.42,-198 659.42,-162 762.58,-162 762.58,-198"/>
<text text-anchor="middle" x="711" y="-175.8" font-family="Times,serif" font-size="14.00">MatiereModule</text>
</g>
<!-- MatiereModule&#45;&gt;AppModule -->
<g id="edge4" class="edge">
<title>MatiereModule&#45;&gt;AppModule</title>
<path fill="none" stroke="black" d="M711,-198.11C711,-198.11 711,-216.99 711,-216.99"/>
<polygon fill="black" stroke="black" points="707.5,-216.99 711,-226.99 714.5,-216.99 707.5,-216.99"/>
</g>
<!-- NoteModule -->
<g id="node5" class="node">
<title>NoteModule</title>
<polygon fill="#8dd3c7" stroke="black" points="867.26,-198 864.26,-202 843.26,-202 840.26,-198 780.74,-198 780.74,-162 867.26,-162 867.26,-198"/>
<text text-anchor="middle" x="824" y="-175.8" font-family="Times,serif" font-size="14.00">NoteModule</text>
</g>
<!-- NoteModule&#45;&gt;AppModule -->
<g id="edge5" class="edge">
<title>NoteModule&#45;&gt;AppModule</title>
<path fill="none" stroke="black" d="M824,-198.01C824,-214.05 824,-235 824,-235 824,-235 762.76,-235 762.76,-235"/>
<polygon fill="black" stroke="black" points="762.76,-231.5 752.76,-235 762.76,-238.5 762.76,-231.5"/>
</g>
<!-- ParentModule -->
<g id="node6" class="node">
<title>ParentModule</title>
<polygon fill="#8dd3c7" stroke="black" points="1117.81,-198 1114.81,-202 1093.81,-202 1090.81,-198 1022.19,-198 1022.19,-162 1117.81,-162 1117.81,-198"/>
<text text-anchor="middle" x="1070" y="-175.8" font-family="Times,serif" font-size="14.00">ParentModule</text>
</g>
<!-- ParentModule&#45;&gt;AppModule -->
<g id="edge6" class="edge">
<title>ParentModule&#45;&gt;AppModule</title>
<path fill="none" stroke="black" d="M1070,-198.13C1070,-218.57 1070,-249 1070,-249 1070,-249 762.88,-249 762.88,-249"/>
<polygon fill="black" stroke="black" points="762.88,-245.5 752.88,-249 762.88,-252.5 762.88,-245.5"/>
</g>
<!-- ProfesseurModule -->
<g id="node7" class="node">
<title>ProfesseurModule</title>
<polygon fill="#8dd3c7" stroke="black" points="1004.13,-198 1001.13,-202 980.13,-202 977.13,-198 885.87,-198 885.87,-162 1004.13,-162 1004.13,-198"/>
<text text-anchor="middle" x="945" y="-175.8" font-family="Times,serif" font-size="14.00">ProfesseurModule</text>
</g>
<!-- ProfesseurModule&#45;&gt;AppModule -->
<g id="edge7" class="edge">
<title>ProfesseurModule&#45;&gt;AppModule</title>
<path fill="none" stroke="black" d="M945,-198.27C945,-216.56 945,-242 945,-242 945,-242 762.83,-242 762.83,-242"/>
<polygon fill="black" stroke="black" points="762.83,-238.5 752.83,-242 762.83,-245.5 762.83,-238.5"/>
</g>
<!-- UtilisateurModule -->
<g id="node8" class="node">
<title>UtilisateurModule</title>
<polygon fill="#8dd3c7" stroke="black" points="1254.14,-198 1251.14,-202 1230.14,-202 1227.14,-198 1135.86,-198 1135.86,-162 1254.14,-162 1254.14,-198"/>
<text text-anchor="middle" x="1195" y="-175.8" font-family="Times,serif" font-size="14.00">UtilisateurModule</text>
</g>
<!-- UtilisateurModule&#45;&gt;AppModule -->
<g id="edge8" class="edge">
<title>UtilisateurModule&#45;&gt;AppModule</title>
<path fill="none" stroke="black" d="M1195,-198.01C1195,-220.49 1195,-256 1195,-256 1195,-256 762.68,-256 762.68,-256"/>
<polygon fill="black" stroke="black" points="762.68,-252.5 752.68,-256 762.68,-259.5 762.68,-252.5"/>
</g>
<!-- AppService -->
<g id="node10" class="node">
<title>AppService</title>
<ellipse fill="#fdb462" stroke="black" cx="249" cy="-180" rx="56.74" ry="18"/>
<text text-anchor="middle" x="249" y="-175.8" font-family="Times,serif" font-size="14.00">AppService</text>
</g>
<!-- AppService&#45;&gt;AppModule -->
<g id="edge9" class="edge">
<title>AppService&#45;&gt;AppModule</title>
<path fill="none" stroke="black" d="M249,-198.01C249,-220.49 249,-256 249,-256 249,-256 659.19,-256 659.19,-256"/>
<polygon fill="black" stroke="black" points="659.19,-259.5 669.19,-256 659.19,-252.5 659.19,-259.5"/>
</g>
<!-- AuthService -->
<g id="node11" class="node">
<title>AuthService</title>
<ellipse fill="#fdb462" stroke="black" cx="237" cy="-104" rx="59.11" ry="18"/>
<text text-anchor="middle" x="237" y="-99.8" font-family="Times,serif" font-size="14.00">AuthService</text>
</g>
<!-- AuthService&#45;&gt;AuthModule -->
<g id="edge10" class="edge">
<title>AuthService&#45;&gt;AuthModule</title>
<path fill="none" stroke="black" d="M296.66,-104C308.79,-104 317.92,-104 317.92,-104 317.92,-104 317.92,-180 317.92,-180 317.92,-180 320.37,-180 320.37,-180"/>
<polygon fill="black" stroke="black" points="320.37,-183.5 330.37,-180 320.37,-176.5 320.37,-183.5"/>
</g>
<!-- JwtAuthGuard -->
<g id="node12" class="node">
<title>JwtAuthGuard</title>
<ellipse fill="#fdb462" stroke="black" cx="92" cy="-104" rx="67.78" ry="18"/>
<text text-anchor="middle" x="92" y="-99.8" font-family="Times,serif" font-size="14.00">JwtAuthGuard</text>
</g>
<!-- JwtAuthGuard&#45;&gt;AuthModule -->
<g id="edge11" class="edge">
<title>JwtAuthGuard&#45;&gt;AuthModule</title>
<path fill="none" stroke="black" d="M92,-122.06C92,-126.49 92,-130 92,-130 92,-130 376.79,-130 376.79,-130 376.79,-130 376.79,-151.95 376.79,-151.95"/>
<polygon fill="black" stroke="black" points="373.29,-151.95 376.79,-161.95 380.29,-151.95 373.29,-151.95"/>
</g>
<!-- ClasseService -->
<g id="node13" class="node">
<title>ClasseService</title>
<ellipse fill="#fdb462" stroke="black" cx="401" cy="-104" rx="65.4" ry="18"/>
<text text-anchor="middle" x="401" y="-99.8" font-family="Times,serif" font-size="14.00">ClasseService</text>
</g>
<!-- ClasseService&#45;&gt;ClasseModule -->
<g id="edge12" class="edge">
<title>ClasseService&#45;&gt;ClasseModule</title>
<path fill="none" stroke="black" d="M451.08,-115.54C451.08,-115.54 451.08,-151.83 451.08,-151.83"/>
<polygon fill="black" stroke="black" points="447.58,-151.83 451.08,-161.83 454.58,-151.83 447.58,-151.83"/>
</g>
<!-- EleveService -->
<g id="node14" class="node">
<title>EleveService</title>
<ellipse fill="#fdb462" stroke="black" cx="568" cy="-104" rx="61.95" ry="18"/>
<text text-anchor="middle" x="568" y="-99.8" font-family="Times,serif" font-size="14.00">EleveService</text>
</g>
<!-- EleveService&#45;&gt;EleveModule -->
<g id="edge13" class="edge">
<title>EleveService&#45;&gt;EleveModule</title>
<path fill="none" stroke="black" d="M576.85,-122.01C576.85,-122.01 576.85,-151.85 576.85,-151.85"/>
<polygon fill="black" stroke="black" points="573.35,-151.85 576.85,-161.85 580.35,-151.85 573.35,-151.85"/>
</g>
<!-- EleveService&#45;&gt;NoteModule -->
<g id="edge15" class="edge">
<title>EleveService&#45;&gt;NoteModule</title>
<path fill="none" stroke="black" d="M603.41,-119.01C603.41,-128.12 603.41,-138 603.41,-138 603.41,-138 790.42,-138 790.42,-138 790.42,-138 790.42,-151.94 790.42,-151.94"/>
<polygon fill="black" stroke="black" points="786.92,-151.94 790.42,-161.94 793.92,-151.94 786.92,-151.94"/>
</g>
<!-- MatiereService -->
<g id="node15" class="node">
<title>MatiereService</title>
<ellipse fill="#fdb462" stroke="black" cx="740" cy="-104" rx="70.04" ry="18"/>
<text text-anchor="middle" x="740" y="-99.8" font-family="Times,serif" font-size="14.00">MatiereService</text>
</g>
<!-- MatiereService&#45;&gt;MatiereModule -->
<g id="edge14" class="edge">
<title>MatiereService&#45;&gt;MatiereModule</title>
<path fill="none" stroke="black" d="M716.26,-121.25C716.26,-121.25 716.26,-151.76 716.26,-151.76"/>
<polygon fill="black" stroke="black" points="712.76,-151.76 716.26,-161.76 719.76,-151.76 712.76,-151.76"/>
</g>
<!-- MatiereService&#45;&gt;NoteModule -->
<g id="edge16" class="edge">
<title>MatiereService&#45;&gt;NoteModule</title>
<path fill="none" stroke="black" d="M800.22,-113.32C800.22,-113.32 800.22,-151.89 800.22,-151.89"/>
<polygon fill="black" stroke="black" points="796.72,-151.89 800.22,-161.89 803.72,-151.89 796.72,-151.89"/>
</g>
<!-- NoteService -->
<g id="node16" class="node">
<title>NoteService</title>
<ellipse fill="#fdb462" stroke="black" cx="909" cy="-104" rx="58.53" ry="18"/>
<text text-anchor="middle" x="909" y="-99.8" font-family="Times,serif" font-size="14.00">NoteService</text>
</g>
<!-- NoteService&#45;&gt;NoteModule -->
<g id="edge17" class="edge">
<title>NoteService&#45;&gt;NoteModule</title>
<path fill="none" stroke="black" d="M855.95,-111.85C855.95,-111.85 855.95,-151.73 855.95,-151.73"/>
<polygon fill="black" stroke="black" points="852.45,-151.73 855.95,-161.73 859.45,-151.73 852.45,-151.73"/>
</g>
<!-- ProfesseurService -->
<g id="node17" class="node">
<title>ProfesseurService</title>
<ellipse fill="#fdb462" stroke="black" cx="1067" cy="-104" rx="80.99" ry="18"/>
<text text-anchor="middle" x="1067" y="-99.8" font-family="Times,serif" font-size="14.00">ProfesseurService</text>
</g>
<!-- ProfesseurService&#45;&gt;NoteModule -->
<g id="edge18" class="edge">
<title>ProfesseurService&#45;&gt;NoteModule</title>
<path fill="none" stroke="black" d="M992.27,-110.94C992.27,-122.86 992.27,-146 992.27,-146 992.27,-146 861.67,-146 861.67,-146 861.67,-146 861.67,-151.81 861.67,-151.81"/>
<polygon fill="black" stroke="black" points="858.17,-151.81 861.67,-161.81 865.17,-151.81 858.17,-151.81"/>
</g>
<!-- ProfesseurService&#45;&gt;ProfesseurModule -->
<g id="edge20" class="edge">
<title>ProfesseurService&#45;&gt;ProfesseurModule</title>
<path fill="none" stroke="black" d="M998.3,-113.63C998.3,-113.63 998.3,-151.75 998.3,-151.75"/>
<polygon fill="black" stroke="black" points="994.8,-151.75 998.3,-161.75 1001.8,-151.75 994.8,-151.75"/>
</g>
<!-- ParentService -->
<g id="node18" class="node">
<title>ParentService</title>
<ellipse fill="#fdb462" stroke="black" cx="1253" cy="-104" rx="64.82" ry="18"/>
<text text-anchor="middle" x="1253" y="-99.8" font-family="Times,serif" font-size="14.00">ParentService</text>
</g>
<!-- ParentService&#45;&gt;ParentModule -->
<g id="edge19" class="edge">
<title>ParentService&#45;&gt;ParentModule</title>
<path fill="none" stroke="black" d="M1221.33,-119.82C1221.33,-134.47 1221.33,-154 1221.33,-154 1221.33,-154 1070,-154 1070,-154 1070,-154 1070,-154.79 1070,-154.79"/>
<polygon fill="black" stroke="black" points="1066.5,-151.94 1070,-161.94 1073.5,-151.94 1066.5,-151.94"/>
</g>
<!-- UtilisateurService -->
<g id="node19" class="node">
<title>UtilisateurService</title>
<ellipse fill="#fdb462" stroke="black" cx="1439" cy="-104" rx="80.51" ry="18"/>
<text text-anchor="middle" x="1439" y="-99.8" font-family="Times,serif" font-size="14.00">UtilisateurService</text>
</g>
<!-- UtilisateurService&#45;&gt;UtilisateurModule -->
<g id="edge21" class="edge">
<title>UtilisateurService&#45;&gt;UtilisateurModule</title>
<path fill="none" stroke="black" d="M1439,-122.01C1439,-144.49 1439,-180 1439,-180 1439,-180 1264.38,-180 1264.38,-180"/>
<polygon fill="black" stroke="black" points="1264.38,-176.5 1254.38,-180 1264.38,-183.5 1264.38,-176.5"/>
</g>
</g>
</svg>
