<?xml version="1.0" encoding="UTF-8" standalone="no"?>
<!DOCTYPE svg PUBLIC "-//W3C//DTD SVG 1.1//EN"
 "http://www.w3.org/Graphics/SVG/1.1/DTD/svg11.dtd">
<!-- Generated by graphviz version 2.47.0 (20210316.0004)
 -->
<!-- Title: dependencies Pages: 1 -->
<svg width="654pt" height="211pt"
 viewBox="0.00 0.00 654.00 211.00" xmlns="http://www.w3.org/2000/svg" xmlns:xlink="http://www.w3.org/1999/xlink">
<g id="graph0" class="graph" transform="scale(1 1) rotate(0) translate(4 207)">
<title>dependencies</title>
<polygon fill="white" stroke="transparent" points="-4,4 -4,-207 650,-207 650,4 -4,4"/>
<text text-anchor="start" x="302.01" y="-42.4" font-family="Times-12" font-weight="bold" font-size="14.00">Legend</text>
<polygon fill="#ffffb3" stroke="transparent" points="89,-10 89,-30 109,-30 109,-10 89,-10"/>
<text text-anchor="start" x="112.63" y="-15.4" font-family="Times-12" font-size="14.00"> &#160;Declarations</text>
<polygon fill="#8dd3c7" stroke="transparent" points="202,-10 202,-30 222,-30 222,-10 202,-10"/>
<text text-anchor="start" x="225.73" y="-15.4" font-family="Times-12" font-size="14.00"> &#160;Module</text>
<polygon fill="#80b1d3" stroke="transparent" points="288,-10 288,-30 308,-30 308,-10 288,-10"/>
<text text-anchor="start" x="311.78" y="-15.4" font-family="Times-12" font-size="14.00"> &#160;Bootstrap</text>
<polygon fill="#fdb462" stroke="transparent" points="385,-10 385,-30 405,-30 405,-10 385,-10"/>
<text text-anchor="start" x="408.67" y="-15.4" font-family="Times-12" font-size="14.00"> &#160;Providers</text>
<polygon fill="#fb8072" stroke="transparent" points="481,-10 481,-30 501,-30 501,-10 481,-10"/>
<text text-anchor="start" x="504.73" y="-15.4" font-family="Times-12" font-size="14.00"> &#160;Exports</text>
<g id="clust1" class="cluster">
<title>cluster_NoteModule</title>
<polygon fill="none" stroke="black" stroke-dasharray="1,5" points="8,-70 8,-195 638,-195 638,-70 8,-70"/>
</g>
<g id="clust6" class="cluster">
<title>cluster_NoteModule_providers</title>
<polygon fill="none" stroke="black" points="16,-78 16,-130 630,-130 630,-78 16,-78"/>
</g>
<!-- EleveService -->
<g id="node1" class="node">
<title>EleveService</title>
<ellipse fill="#fdb462" stroke="black" cx="560" cy="-104" rx="61.95" ry="18"/>
<text text-anchor="middle" x="560" y="-99.8" font-family="Times,serif" font-size="14.00">EleveService</text>
</g>
<!-- NoteModule -->
<g id="node5" class="node">
<title>NoteModule</title>
<polygon fill="#8dd3c7" stroke="black" points="379.26,-187 376.26,-191 355.26,-191 352.26,-187 292.74,-187 292.74,-151 379.26,-151 379.26,-187"/>
<text text-anchor="middle" x="336" y="-164.8" font-family="Times,serif" font-size="14.00">NoteModule</text>
</g>
<!-- EleveService&#45;&gt;NoteModule -->
<g id="edge1" class="edge">
<title>EleveService&#45;&gt;NoteModule</title>
<path fill="none" stroke="black" d="M560,-122.11C560,-141.34 560,-169 560,-169 560,-169 389.46,-169 389.46,-169"/>
<polygon fill="black" stroke="black" points="389.46,-165.5 379.46,-169 389.46,-172.5 389.46,-165.5"/>
</g>
<!-- MatiereService -->
<g id="node2" class="node">
<title>MatiereService</title>
<ellipse fill="#fdb462" stroke="black" cx="410" cy="-104" rx="70.04" ry="18"/>
<text text-anchor="middle" x="410" y="-99.8" font-family="Times,serif" font-size="14.00">MatiereService</text>
</g>
<!-- MatiereService&#45;&gt;NoteModule -->
<g id="edge2" class="edge">
<title>MatiereService&#45;&gt;NoteModule</title>
<path fill="none" stroke="black" d="M359.68,-116.53C359.68,-116.53 359.68,-140.85 359.68,-140.85"/>
<polygon fill="black" stroke="black" points="356.18,-140.85 359.68,-150.85 363.18,-140.85 356.18,-140.85"/>
</g>
<!-- NoteService -->
<g id="node3" class="node">
<title>NoteService</title>
<ellipse fill="#fdb462" stroke="black" cx="263" cy="-104" rx="58.53" ry="18"/>
<text text-anchor="middle" x="263" y="-99.8" font-family="Times,serif" font-size="14.00">NoteService</text>
</g>
<!-- NoteService&#45;&gt;NoteModule -->
<g id="edge3" class="edge">
<title>NoteService&#45;&gt;NoteModule</title>
<path fill="none" stroke="black" d="M307.19,-115.92C307.19,-115.92 307.19,-140.77 307.19,-140.77"/>
<polygon fill="black" stroke="black" points="303.69,-140.77 307.19,-150.77 310.69,-140.77 303.69,-140.77"/>
</g>
<!-- ProfesseurService -->
<g id="node4" class="node">
<title>ProfesseurService</title>
<ellipse fill="#fdb462" stroke="black" cx="105" cy="-104" rx="80.99" ry="18"/>
<text text-anchor="middle" x="105" y="-99.8" font-family="Times,serif" font-size="14.00">ProfesseurService</text>
</g>
<!-- ProfesseurService&#45;&gt;NoteModule -->
<g id="edge4" class="edge">
<title>ProfesseurService&#45;&gt;NoteModule</title>
<path fill="none" stroke="black" d="M105,-122.11C105,-141.34 105,-169 105,-169 105,-169 282.55,-169 282.55,-169"/>
<polygon fill="black" stroke="black" points="282.55,-172.5 292.55,-169 282.55,-165.5 282.55,-172.5"/>
</g>
</g>
</svg>
